<?xml version="1.0" standalone="no"?>
<!DOCTYPE svg PUBLIC "-//W3C//DTD SVG 20010904//EN"
 "http://www.w3.org/TR/2001/REC-SVG-20010904/DTD/svg10.dtd">
<svg version="1.0" xmlns="http://www.w3.org/2000/svg"
 width="632.000000pt" height="172.000000pt" viewBox="0 0 632.000000 172.000000"
 preserveAspectRatio="xMidYMid meet">

<g transform="translate(0.000000,172.000000) scale(0.100000,-0.100000)"
fill="#000000" stroke="none">
<path d="M1988 1566 c-62 -22 -85 -42 -112 -98 -34 -69 -35 -112 -27 -698 6
-443 8 -467 28 -511 26 -59 73 -94 144 -108 98 -20 198 19 235 91 35 67 44
136 44 325 l0 186 36 33 c24 23 45 34 65 34 44 0 86 -25 94 -57 4 -15 10 -139
14 -275 7 -278 8 -283 87 -323 60 -30 177 -33 236 -5 87 40 105 93 119 344 11
193 2 348 -23 421 -60 175 -142 227 -324 205 -110 -14 -152 -24 -232 -57 -34
-14 -65 -23 -68 -20 -3 3 -5 79 -5 170 1 91 -4 188 -10 216 -13 63 -58 114
-114 130 -53 15 -141 13 -187 -3z"/>
</g>
</svg>
